<svg width="36" height="36" viewBox="0 0 36 36" fill="none" xmlns="http://www.w3.org/2000/svg">
<g id="Icon/Solid/search-circle">
<g id="Icon">
<path d="M16.1996 16.1996C16.1996 14.2114 17.8114 12.5996 19.7996 12.5996C21.7878 12.5996 23.3996 14.2114 23.3996 16.1996C23.3996 18.1878 21.7878 19.7996 19.7996 19.7996C18.805 19.7996 17.9075 19.3986 17.254 18.7452C16.6006 18.0918 16.1996 17.1942 16.1996 16.1996Z" fill="#FBBC05"/>
<path fill-rule="evenodd" clip-rule="evenodd" d="M17.9996 32.3996C25.9525 32.3996 32.3996 25.9525 32.3996 17.9996C32.3996 10.0467 25.9525 3.59961 17.9996 3.59961C10.0467 3.59961 3.59961 10.0467 3.59961 17.9996C3.59961 25.9525 10.0467 32.3996 17.9996 32.3996ZM19.7996 8.99961C15.8232 8.99961 12.5996 12.2232 12.5996 16.1996C12.5996 17.5341 12.9637 18.7851 13.5967 19.8569L9.52682 23.9268C8.82387 24.6298 8.82387 25.7695 9.52682 26.4724C10.2298 27.1753 11.3695 27.1753 12.0724 26.4724L16.1423 22.4025C17.2141 23.0355 18.4651 23.3996 19.7996 23.3996C23.7761 23.3996 26.9996 20.1761 26.9996 16.1996C26.9996 12.2232 23.7761 8.99961 19.7996 8.99961Z" fill="#FBBC05"/>
<path d="M16.1996 16.1996C16.1996 14.2114 17.8114 12.5996 19.7996 12.5996C21.7878 12.5996 23.3996 14.2114 23.3996 16.1996C23.3996 18.1878 21.7878 19.7996 19.7996 19.7996C18.805 19.7996 17.9075 19.3986 17.254 18.7452C16.6006 18.0918 16.1996 17.1942 16.1996 16.1996Z" stroke="#FBBC05" stroke-width="2"/>
<path fill-rule="evenodd" clip-rule="evenodd" d="M17.9996 32.3996C25.9525 32.3996 32.3996 25.9525 32.3996 17.9996C32.3996 10.0467 25.9525 3.59961 17.9996 3.59961C10.0467 3.59961 3.59961 10.0467 3.59961 17.9996C3.59961 25.9525 10.0467 32.3996 17.9996 32.3996ZM19.7996 8.99961C15.8232 8.99961 12.5996 12.2232 12.5996 16.1996C12.5996 17.5341 12.9637 18.7851 13.5967 19.8569L9.52682 23.9268C8.82387 24.6298 8.82387 25.7695 9.52682 26.4724C10.2298 27.1753 11.3695 27.1753 12.0724 26.4724L16.1423 22.4025C17.2141 23.0355 18.4651 23.3996 19.7996 23.3996C23.7761 23.3996 26.9996 20.1761 26.9996 16.1996C26.9996 12.2232 23.7761 8.99961 19.7996 8.99961Z" stroke="#FBBC05" stroke-width="2"/>
</g>
</g>
</svg>
